<svg width="32" height="32" viewBox="0 0 32 32" fill="none" xmlns="http://www.w3.org/2000/svg">
<path d="M21.9999 8H17.9999C17.2635 8 16.6666 8.59696 16.6666 9.33333V13.3333H21.9999C22.1515 13.33 22.2954 13.4005 22.3855 13.5225C22.4757 13.6445 22.501 13.8027 22.4533 13.9467L21.4666 16.88C21.3757 17.1492 21.1241 17.3312 20.8399 17.3333H16.6666V27.3333C16.6666 27.7015 16.3681 28 15.9999 28H12.6666C12.2984 28 11.9999 27.7015 11.9999 27.3333V17.3333H9.99992C9.63173 17.3333 9.33325 17.0348 9.33325 16.6667V14C9.33325 13.6319 9.63173 13.3333 9.99992 13.3333H11.9999V9.33333C11.9999 6.38781 14.3878 4 17.3333 4H21.9999C22.3681 4 22.6666 4.29848 22.6666 4.66667V7.33333C22.6666 7.70152 22.3681 8 21.9999 8Z" fill="black"/>
</svg>
