<svg width="32" height="32" viewBox="0 0 32 32" fill="none" xmlns="http://www.w3.org/2000/svg">
<path d="M27.9637 8.95654C27.3445 9.78256 26.5959 10.5031 25.747 11.0904C25.747 11.3061 25.747 11.5219 25.747 11.7497C25.7538 15.6681 24.1886 19.4255 21.4023 22.1793C18.6159 24.9332 14.8415 26.4532 10.9253 26.3985C8.66124 26.4061 6.42615 25.8892 4.39515 24.8881C4.28563 24.8403 4.215 24.732 4.21541 24.6124V24.4805C4.21541 24.3084 4.35489 24.1689 4.52695 24.1689C6.75248 24.0955 8.89861 23.3239 10.6617 21.9632C8.64729 21.9225 6.83484 20.7292 6.00072 18.8943C5.9586 18.7941 5.97171 18.6791 6.03535 18.5909C6.09897 18.5028 6.20392 18.4543 6.31225 18.4628C6.92448 18.5243 7.54283 18.4673 8.13352 18.2949C5.90977 17.8333 4.23887 15.9872 3.99973 13.7276C3.99124 13.6192 4.03981 13.5143 4.12792 13.4505C4.21601 13.3869 4.33091 13.3737 4.43109 13.416C5.02784 13.6793 5.67204 13.818 6.32424 13.8235C4.37571 12.5446 3.53407 10.1121 4.27532 7.90163C4.35184 7.68684 4.53567 7.52816 4.75925 7.48392C4.98283 7.43967 5.2132 7.51638 5.36568 7.68586C7.99511 10.4843 11.608 12.1519 15.4425 12.3371C15.3443 11.9451 15.2961 11.5423 15.2987 11.1383C15.3346 9.01963 16.6455 7.13228 18.6178 6.35983C20.5899 5.58739 22.8331 6.08271 24.2973 7.61392C25.2951 7.4238 26.2599 7.0886 27.1609 6.61895C27.2269 6.57775 27.3106 6.57775 27.3766 6.61895C27.4178 6.68498 27.4178 6.7687 27.3766 6.83472C26.9402 7.83403 26.203 8.67216 25.2678 9.23226C26.0867 9.13728 26.8913 8.9441 27.6642 8.65686C27.7293 8.61256 27.8147 8.61256 27.8798 8.65686C27.9343 8.68179 27.9751 8.72948 27.9913 8.78723C28.0074 8.84498 27.9973 8.90691 27.9637 8.95654Z" fill="black"/>
</svg>
